<svg xmlns="http://www.w3.org/2000/svg" width="260" height="171" viewBox="0 0 260 171" version="1.1">
	<path d="M 0.035 39.562 C 0.115 76.127, 0.249 79.100, 1.811 78.810 C 2.740 78.637, 3.931 77.034, 4.457 75.248 C 5.420 71.979, 7 70.817, 7 73.378 C 7 74.136, 6.308 76.411, 5.463 78.434 C 4.235 81.372, 3.532 81.986, 1.963 81.488 C 0.543 81.037, -0 81.331, -0 82.549 C 0 83.741, 0.585 84.080, 1.999 83.711 C 3.098 83.423, 4.255 83.603, 4.568 84.110 C 5.586 85.757, 7 83.955, 7 81.012 C 7 77.862, 9.035 75.317, 12.655 73.941 C 14.402 73.277, 15 72.278, 15 70.025 C 15 68.361, 15.450 67, 16 67 C 16.550 67, 17 67.781, 17 68.736 C 17 69.944, 17.684 69.494, 19.250 67.253 C 20.639 65.266, 22.361 64.028, 23.750 64.017 C 26.190 63.999, 26.662 62.105, 25.001 59.001 C 24.203 57.510, 24.404 57.007, 26.001 56.500 C 27.804 55.927, 28.435 54.828, 28.130 52.786 C 28.072 52.393, 28.694 52.329, 29.512 52.643 C 30.330 52.957, 31 53.841, 31 54.607 C 31 56.427, 32.477 56.380, 34.357 54.500 C 35.182 53.675, 36.844 53, 38.051 53 C 39.919 53, 40.054 52.770, 38.958 51.450 C 37.897 50.171, 37.954 49.617, 39.286 48.286 C 41.550 46.022, 44.463 48.267, 42.944 51.105 C 41.304 54.170, 43.776 53.405, 45.765 50.232 C 46.994 48.272, 48.229 47.522, 50 47.661 C 54.439 48.011, 56.127 47.106, 54.993 44.986 C 54.216 43.536, 54.388 42.880, 55.743 42.116 C 57.150 41.322, 57.251 40.873, 56.250 39.862 C 54.752 38.350, 54.600 36, 56 36 C 56.550 36, 57 36.738, 57 37.640 C 57 38.542, 57.686 39.781, 58.524 40.394 C 60.749 42.021, 59.427 48, 56.842 48 C 55.792 48, 53.335 49.598, 51.382 51.552 C 48.660 54.274, 47.520 54.846, 46.504 54.003 C 45.535 53.199, 44.985 53.215, 44.461 54.063 C 43.707 55.283, 45.607 56.959, 47.773 56.985 C 48.708 56.996, 48.609 57.667, 47.404 59.506 C 45.489 62.429, 44.784 72.682, 46.329 75.154 C 47.099 76.388, 46.937 77.855, 45.720 80.668 C 43.499 85.800, 41.978 95.091, 43.036 97.067 C 43.503 97.940, 44.048 99.744, 44.248 101.077 C 44.987 106.020, 49.085 111.934, 54.977 116.563 C 58.552 119.372, 61 122.064, 61 123.187 C 61 124.228, 61.869 126.784, 62.932 128.867 C 68.606 139.990, 78.809 146.039, 93.155 146.785 L 101.811 147.236 99.021 153.868 C 94.561 164.474, 94.427 165.220, 97.064 164.832 C 98.829 164.572, 100.222 162.490, 103.530 155.177 C 105.879 149.980, 109.728 143.562, 112.223 140.677 C 115.973 136.341, 117.554 135.301, 121.948 134.276 C 126.540 133.204, 127.400 133.257, 128.838 134.695 C 130.067 135.924, 130.162 136.446, 129.214 136.762 C 126.342 137.719, 117.933 145.237, 115.055 149.420 C 111.325 154.841, 107.782 162.839, 108.556 164.090 C 108.865 164.591, 109.930 165, 110.923 165 C 112.159 165, 113.293 163.501, 114.519 160.250 C 117.164 153.232, 121.459 147.469, 126.763 143.819 C 132.053 140.179, 134.622 139.935, 145.251 142.058 C 158.333 144.671, 173.597 139.962, 181.331 130.926 C 184.757 126.923, 186 123.421, 186 117.768 C 186 115.683, 186.404 114.941, 187.343 115.301 C 191.490 116.893, 199.990 117.080, 204.691 115.685 C 217.139 111.988, 224.816 104.982, 226.526 95.758 C 226.969 93.365, 228.583 90.652, 231 88.235 C 238.357 80.879, 238.855 69.188, 232.099 62.433 C 229.730 60.064, 229.298 58.936, 229.733 56.258 C 230.902 49.052, 223.280 38.099, 215.980 36.496 C 214.157 36.095, 212.777 34.876, 211.986 32.967 C 209.394 26.709, 202.221 21.255, 195.409 20.362 C 191.645 19.868, 189.684 18.912, 187 16.261 C 181.605 10.932, 176.439 8.700, 169.252 8.593 C 165.816 8.542, 163.004 8.088, 163.002 7.583 C 163.001 7.079, 162.699 6.968, 162.331 7.336 C 160.956 8.711, 158.020 4.770, 158.625 2.360 L 159.217 -0 79.583 -0 L -0.052 0 0.035 39.562 M 143.500 9.738 C 139.802 10.279, 138 11.688, 138 14.039 C 138 15.026, 137.510 15.997, 136.911 16.196 C 134.569 16.977, 139.567 21.212, 143.046 21.395 C 146.473 21.574, 146.497 21.609, 146.160 25.827 C 145.958 28.360, 146.356 30.724, 147.145 31.675 C 148.365 33.144, 155.438 38, 156.359 38 C 157.630 38, 159.050 32.022, 158.174 30.359 C 157.635 29.336, 156.636 26.608, 155.952 24.295 C 155.017 21.129, 153.905 19.708, 151.454 18.545 C 149.663 17.695, 147.703 17, 147.099 17 C 146.494 17, 146 16.100, 146 15 C 146 13.520, 146.667 13, 148.566 13 C 153.848 13, 158.501 17.218, 159.597 23 C 160.416 27.319, 161.706 29.050, 163.573 28.334 C 164.358 28.032, 165.748 28.073, 166.662 28.424 C 168.038 28.952, 167.695 29.637, 164.662 32.416 C 160.340 36.375, 159.935 39.750, 163.152 45 C 170.003 56.178, 170.403 57.274, 170.452 65 C 170.493 71.371, 170.100 73.177, 167.845 77 C 163.157 84.948, 156.836 88.927, 148.596 89.118 L 143.500 89.235 148.500 90.109 C 156.766 91.554, 168.325 86.535, 173.681 79.177 C 180.692 69.544, 180.827 55.090, 173.986 46.483 C 171.062 42.803, 169.967 38, 172.052 38 C 172.631 38, 173.539 39.247, 174.070 40.771 C 174.601 42.294, 176.007 44.148, 177.194 44.889 C 179.082 46.068, 179.525 46.003, 180.720 44.369 C 183.336 40.793, 183.339 38.101, 180.731 34.221 C 179.356 32.174, 177.941 29.247, 177.588 27.716 C 177.219 26.121, 175.889 24.451, 174.472 23.805 C 172.027 22.691, 171.021 20, 173.050 20 C 176.069 20, 179.924 23.246, 181.043 26.733 C 181.708 28.805, 182.897 31.239, 183.684 32.143 C 184.471 33.046, 185.457 35.071, 185.875 36.643 C 186.371 38.508, 187.393 39.611, 188.817 39.820 C 191.850 40.264, 191.542 41.669, 188.009 43.495 C 182.894 46.140, 182.081 48.415, 182.289 59.500 C 182.456 68.449, 182.197 70.098, 179.823 75.186 C 176.959 81.323, 169.772 88.931, 164.455 91.454 C 154.121 96.358, 142.412 95.257, 135.250 88.709 C 131.495 85.275, 132.737 88.517, 136.622 92.290 C 141.027 96.568, 147.281 98.537, 156 98.391 C 173.890 98.091, 190 83.574, 190 67.754 C 190 61.402, 191.852 56.685, 195.010 54.994 C 196.282 54.314, 197 52.901, 197 51.079 C 197 49.511, 197.672 46.940, 198.494 45.364 C 200.672 41.188, 200.361 39.208, 197 35.846 C 195.350 34.196, 194 32.431, 194 31.923 C 194 30.457, 196.313 30.910, 198.603 32.825 C 203.169 36.641, 204.125 41.437, 201.408 46.885 C 199.241 51.228, 200.141 53, 204.516 53 C 207.050 53, 208.773 52.269, 210.412 50.500 C 212.836 47.884, 215 47.224, 215 49.100 C 215 49.705, 213.470 51.730, 211.600 53.600 C 208.566 56.634, 207.614 57, 202.755 57 C 195.578 57, 193.778 58.915, 193.180 67.186 L 192.738 73.297 197.069 72.605 C 202.334 71.763, 203.679 70.738, 204.515 66.931 C 205.490 62.491, 207 63.423, 207 68.465 C 207 71.906, 207.458 73.175, 209 74 C 211.545 75.362, 211.771 78.526, 209.250 77.505 C 203.371 75.122, 201.999 74.923, 198.303 75.918 C 193.961 77.088, 190.727 79.708, 188.600 83.779 C 187.818 85.276, 185.788 87.822, 184.089 89.437 C 182.390 91.052, 181 92.799, 181 93.319 C 181 94.995, 189.201 93.228, 192.400 90.862 C 194.798 89.089, 197.044 88.517, 202.386 88.317 C 209.695 88.043, 212.414 86.634, 214.090 82.250 C 215.322 79.028, 217.381 79.346, 216.557 82.631 C 215.525 86.741, 212.834 89.782, 208.750 91.451 C 206.688 92.294, 205 93.647, 205 94.457 C 205 95.785, 208.771 98.584, 210 98.169 C 210.275 98.076, 210.500 98.563, 210.500 99.250 C 210.500 99.968, 209.179 100.527, 207.395 100.563 C 205.688 100.598, 203.040 101.610, 201.511 102.813 C 198.609 105.096, 195 105.740, 195 103.975 C 195 103.412, 196.131 102.521, 197.512 101.995 C 200.352 100.916, 202.569 96.925, 201.654 94.541 C 200.496 91.522, 197.823 91.636, 191.775 94.961 C 186.367 97.934, 185.290 98.179, 180.157 97.603 C 175.679 97.101, 173.770 97.358, 171 98.837 C 166.123 101.439, 155.045 103.349, 149.821 102.487 C 142.808 101.331, 135.386 97.153, 131.512 92.179 C 129.580 89.700, 128 86.872, 128 85.895 C 128 84.918, 127.481 83.798, 126.848 83.406 C 125.283 82.439, 126.436 89.561, 128.520 93.739 C 130.289 97.286, 135.554 102.201, 140.106 104.555 C 141.966 105.516, 147.673 106.485, 154.524 107.002 C 160.761 107.472, 166.682 108.298, 167.682 108.837 C 173.817 112.143, 176.237 119.437, 172.977 124.797 C 171.906 126.559, 170.310 128, 169.431 128 C 168.552 128, 168.007 127.662, 168.219 127.250 C 172.169 119.577, 172.232 118.993, 169.500 115.411 C 168.069 113.535, 166.809 111.974, 166.699 111.942 C 166.590 111.911, 161.550 111.525, 155.500 111.085 C 141.528 110.070, 135.651 107.710, 129.457 100.629 C 123.997 94.388, 121.557 87.653, 122.411 81.181 L 123.029 76.500 121.414 79.380 C 117.295 86.730, 120.934 101.310, 128.695 108.551 C 133.634 113.158, 137.014 114.538, 145.222 115.298 C 148.919 115.640, 153.302 116.622, 154.963 117.481 C 156.682 118.370, 159.016 118.783, 160.382 118.440 C 163.577 117.638, 164.435 119.297, 161.976 121.521 C 160.889 122.505, 160 124.103, 160 125.073 C 160 127.548, 158.951 130, 157.893 130 C 157.402 130, 157 129.070, 157 127.934 C 157 122.458, 153.631 120.143, 143.876 118.918 C 135.429 117.858, 130.858 115.588, 124.815 109.453 C 118.385 102.925, 115.567 95.301, 116.218 86.198 C 116.719 79.189, 117.827 76.389, 121.927 71.760 C 125.877 67.303, 123.516 67.466, 119.163 71.951 C 116.963 74.218, 114.451 78.162, 113.582 80.715 C 110.530 89.670, 112.180 101.613, 117.416 108.478 C 120.294 112.252, 120.680 114, 118.636 114 C 116.646 114, 112.288 107.246, 109.879 100.427 C 106.219 90.066, 108.574 78.110, 115.924 69.739 C 120.460 64.573, 128.986 60.607, 135.396 60.682 C 138.903 60.723, 139.874 60.491, 138.500 59.941 C 135.058 58.564, 126.564 58.929, 121.428 60.676 C 114.636 62.986, 105.899 71.762, 103.676 78.510 C 97.906 96.017, 106.761 116.027, 123.829 124.049 C 129.334 126.637, 138.488 126.421, 140.510 123.655 C 142.386 121.089, 144.310 121.599, 143.752 124.515 C 143.368 126.525, 143.746 127.149, 145.636 127.623 C 146.936 127.950, 148 128.570, 148 129.001 C 148 130.414, 145.174 130.910, 142.118 130.034 C 138.729 129.062, 131 129.816, 131 131.119 C 131 131.590, 132.912 133.201, 135.250 134.700 C 139.205 137.236, 140.263 137.428, 150.500 137.463 C 159.021 137.492, 162.688 137.059, 166.771 135.545 C 179.091 130.975, 185.080 121.023, 180.340 112.999 C 178.633 110.110, 172.398 106, 169.721 106 C 167.553 106, 166.695 103.054, 168.645 102.306 C 169.531 101.966, 172.336 102.220, 174.878 102.870 C 177.420 103.521, 180.963 103.760, 182.750 103.402 C 186.110 102.728, 187.489 104.491, 184.500 105.638 C 181.692 106.716, 182.989 108.830, 187.519 110.560 C 191 111.890, 193.783 112.154, 199.642 111.711 C 208.658 111.029, 214.542 107.934, 219.715 101.151 C 223.262 96.501, 223.881 92.976, 221.500 91 C 219.158 89.056, 219.721 88, 223.099 88 C 229.267 88, 234.014 79.322, 232.363 71.067 C 232.018 69.341, 230.490 66.595, 228.967 64.964 C 226.598 62.428, 225.461 62, 221.099 62 C 214.701 62, 214.542 60.485, 220.750 58.677 C 226.311 57.057, 226.890 55.619, 224.501 49.364 C 222.602 44.390, 217.164 40, 212.904 40 C 210.699 40, 209.988 39.257, 208.525 35.426 C 205.479 27.451, 194.865 21.893, 189.452 25.439 C 186.223 27.555, 185.680 27.411, 186.379 24.624 C 188.118 17.697, 167.814 8.983, 163.373 14.750 C 162.105 16.396, 161.921 16.369, 160.263 14.289 C 159.293 13.073, 156.827 11.386, 154.782 10.539 C 151.100 9.015, 149.315 8.888, 143.500 9.738 M 139.500 12 C 139.160 12.550, 139.809 13, 140.941 13 C 142.073 13, 143 12.550, 143 12 C 143 11.450, 142.352 11, 141.559 11 C 140.766 11, 139.840 11.450, 139.500 12 M 124.500 16 C 124.840 16.550, 125.879 17.014, 126.809 17.032 C 128.369 17.061, 128.364 17.167, 126.750 18.392 C 124.910 19.788, 124.279 21.564, 126 20.500 C 126.550 20.160, 127 20.359, 127 20.941 C 127 22.282, 125.317 22.322, 124.500 21 C 123.311 19.076, 122.407 20.029, 122.176 23.450 C 121.893 27.664, 123.249 28.541, 131.500 29.481 C 134.800 29.856, 138.287 30.382, 139.250 30.649 C 141.862 31.374, 141.499 27.463, 138.777 25.557 C 137.555 24.701, 134.841 24, 132.746 24 C 128.576 24, 126.424 21.461, 129.253 19.879 C 131.915 18.389, 130.228 15, 126.824 15 C 125.117 15, 124.141 15.420, 124.500 16 M 110.143 22.890 C 109.182 23.499, 109.114 23.952, 109.910 24.444 C 110.527 24.826, 110.774 25.557, 110.457 26.069 C 109.506 27.608, 108.266 27.125, 107.710 25 C 107.139 22.814, 105 22.230, 105 24.259 C 105 25.858, 101.232 28.261, 99.959 27.475 C 98.473 26.556, 98.826 27.684, 100.571 29.429 C 101.436 30.293, 101.661 31, 101.071 31 C 98.816 31, 100.086 34.993, 102.785 36.389 C 106.652 38.388, 113 39.496, 113 38.170 C 113 37.592, 112.522 36.823, 111.938 36.462 C 110.235 35.409, 108.915 30.974, 109.823 29.352 C 110.488 28.164, 111.225 28.606, 113.460 31.537 C 116.705 35.790, 121.287 38, 126.863 38 C 131.885 38, 143.276 41.507, 147.914 44.482 C 153.179 47.859, 157.509 52.794, 160.553 58.890 C 162.796 63.379, 163.147 65.114, 162.654 69.273 C 162.329 72.020, 161.151 76.016, 160.037 78.153 L 158.012 82.038 160.564 80.366 C 161.967 79.447, 164.048 76.867, 165.187 74.633 C 173.389 58.556, 156.471 36.475, 134.404 34.456 C 130.607 34.108, 126.099 33.399, 124.386 32.879 C 121.310 31.946, 116 26.963, 116 25.009 C 116 24.454, 115.325 24, 114.500 24 C 113.675 24, 113 23.550, 113 23 C 113 21.782, 111.955 21.742, 110.143 22.890 M 88.084 31.621 C 86.708 33.369, 86.221 35.033, 86.620 36.621 C 86.993 38.109, 86.780 39, 86.049 39 C 85.407 39, 85.140 39.418, 85.456 39.929 C 85.771 40.439, 85.010 41.002, 83.765 41.179 C 82.270 41.391, 81.387 42.299, 81.167 43.852 C 80.537 48.303, 81.845 50.794, 85.437 51.979 C 88.426 52.966, 89.743 52.766, 95.531 50.451 C 100.245 48.565, 102.499 48.099, 103.254 48.854 C 105.482 51.082, 94.545 56.966, 88.072 57.022 C 83.615 57.061, 80.681 60.219, 80.057 65.650 C 79.667 69.047, 79.051 70.500, 78 70.500 C 77.175 70.500, 76.365 69.554, 76.200 68.398 C 75.965 66.755, 75.364 66.399, 73.442 66.766 C 68.388 67.732, 60.969 62.128, 62.393 58.419 C 63.248 56.190, 65.568 56.756, 66.818 59.500 C 68.739 63.716, 75.040 62.640, 78.392 57.524 C 79.967 55.120, 79.961 54.819, 78.284 52.515 C 77.303 51.166, 76.035 50.049, 75.466 50.031 C 74.897 50.014, 73.629 48.642, 72.649 46.982 C 71.668 45.323, 70.446 44.224, 69.933 44.541 C 69.420 44.859, 68.993 44.079, 68.985 42.809 C 68.972 40.951, 68.780 40.793, 68 42 C 67.467 42.825, 67.024 45.638, 67.015 48.250 C 67.001 52.838, 66.899 53, 64.056 53 C 60.637 53, 54.653 58.010, 53.106 62.166 C 52.560 63.633, 52.131 67.148, 52.153 69.978 C 52.188 74.548, 52.476 75.231, 54.729 76.087 C 58.399 77.482, 60.835 76.330, 62.466 72.427 C 64.263 68.126, 65.708 68.067, 66.760 72.250 C 69.022 81.241, 84.416 80.249, 89.902 70.759 C 96.483 59.374, 105.748 51.214, 115.441 48.265 C 121.326 46.475, 130.935 46.724, 137.746 48.844 C 143.482 50.629, 152.882 56.546, 152.961 58.421 C 152.982 58.928, 153.684 60.099, 154.520 61.023 C 155.357 61.947, 156.697 64.682, 157.499 67.101 L 158.958 71.500 158.628 66.268 C 158.226 59.914, 154.776 54.457, 148.093 49.606 C 139.926 43.678, 134.761 42.576, 114.643 42.473 C 98.582 42.390, 96.545 42.570, 94.390 44.265 C 92.348 45.872, 91.910 45.929, 91.421 44.656 C 90.784 42.995, 93.654 38, 95.246 38 C 96.668 38, 95.390 30.864, 93.785 29.846 C 91.608 28.465, 90.228 28.894, 88.084 31.621 M 76.415 36.562 C 77.697 37.499, 78.805 37.522, 81.091 36.660 C 82.739 36.038, 83.642 35.381, 83.099 35.200 C 82.555 35.018, 81.186 35.365, 80.055 35.970 C 78.925 36.575, 78 36.680, 78 36.202 C 78 35.724, 77.265 35.333, 76.368 35.333 C 74.884 35.333, 74.888 35.445, 76.415 36.562 M 73.389 39.021 C 72.228 39.467, 71.005 40.545, 70.670 41.416 C 69.852 43.549, 74.271 43.583, 76.035 41.458 C 77.714 39.435, 76.122 37.970, 73.389 39.021 M 115 52.995 C 101.072 58.117, 92.959 69.255, 89.868 87.500 C 88.773 93.964, 88.847 94.874, 90.841 99.377 C 93.452 105.276, 93.440 105, 91.082 105 C 89.836 105, 88.523 103.641, 87.332 101.119 L 85.500 97.237 81.158 99.650 C 75.794 102.631, 68.639 103.775, 66.495 101.996 C 65.234 100.949, 64.610 101.043, 62.975 102.523 C 60.411 104.843, 59.675 103.996, 59.442 98.450 C 59.331 95.822, 58.535 93.144, 57.538 92.042 C 54.982 89.218, 55.925 86.785, 59.689 86.491 C 63.070 86.227, 64.418 87.728, 62.923 90.091 C 61.568 92.230, 61.776 92.888, 64.646 95.548 C 66.660 97.414, 68.392 97.999, 71.896 97.996 C 80.247 97.989, 84.826 93.448, 86.311 83.700 C 86.854 80.140, 86.752 79.944, 84.695 80.593 C 76.153 83.289, 75.545 83.679, 74.888 86.894 C 74.527 88.658, 73.985 90.349, 73.682 90.651 C 72.399 91.934, 71 89.613, 70.994 86.191 C 70.988 83.157, 70.465 82.203, 68.052 80.830 C 65.445 79.347, 64.606 79.314, 60.535 80.540 C 58.014 81.298, 55.372 81.696, 54.663 81.424 C 53.954 81.152, 52.518 81.876, 51.471 83.032 C 49.919 84.747, 49.562 86.716, 49.534 93.731 C 49.510 99.743, 49.876 102.453, 50.750 102.747 C 51.438 102.978, 52 103.960, 52 104.930 C 52 107.258, 58.165 113.532, 62.255 115.366 C 64.073 116.181, 70.023 117.039, 75.788 117.318 C 85.820 117.803, 86.376 117.959, 98.184 123.588 C 106.802 127.696, 111.825 129.487, 115.610 129.801 C 124.244 130.517, 124.988 129.519, 118.844 125.463 C 100.862 113.594, 92.923 91.693, 100.654 75.286 C 103.807 68.595, 111.129 61.057, 117.500 57.944 C 121.622 55.929, 124.010 55.500, 131.099 55.500 C 139.564 55.500, 143.149 56.468, 147.250 59.862 C 148.213 60.658, 149 60.983, 149 60.584 C 149 59.203, 146.102 56.968, 140.811 54.269 C 133.633 50.607, 122.930 50.079, 115 52.995 M 37.500 57 C 36.684 58.320, 37.880 60.192, 39.069 59.457 C 40.284 58.707, 40.276 56, 39.059 56 C 38.541 56, 37.840 56.450, 37.500 57 M 29 61 C 29.589 62.100, 30.280 63, 30.535 63 C 30.791 63, 31 62.100, 31 61 C 31 59.869, 30.333 59, 29.465 59 C 28.240 59, 28.146 59.404, 29 61 M 11.001 67.191 C 11 68.121, 11.450 69.160, 12 69.500 C 12.550 69.840, 13 69.439, 13 68.609 C 13 67.779, 13.770 66.669, 14.710 66.142 C 16.108 65.360, 15.925 65.214, 13.711 65.343 C 11.895 65.448, 11.001 66.058, 11.001 67.191 M 220.500 68.727 C 216.416 69.308, 215.301 70.643, 218.145 71.546 C 221.161 72.503, 222.928 74.855, 222.968 77.964 C 222.997 80.161, 223.164 80.265, 224.509 78.920 C 225.639 77.790, 225.856 76.229, 225.373 72.705 C 225.018 70.117, 224.452 68.067, 224.114 68.150 C 223.776 68.232, 222.150 68.492, 220.500 68.727 M 137.908 71.092 C 136.522 72.478, 136.011 73.914, 136.394 75.342 C 136.712 76.529, 136.979 77.765, 136.986 78.089 C 136.994 78.414, 138.151 79.203, 139.557 79.844 C 145.694 82.640, 151.230 74.376, 145.777 70.557 C 142.756 68.441, 140.399 68.601, 137.908 71.092 M 77 105.981 C 77 107.251, 76.118 108.183, 74.541 108.579 C 71.866 109.250, 69.349 111.682, 70.322 112.655 C 70.655 112.989, 72.762 112.796, 75.004 112.227 C 79.699 111.035, 90.321 112.815, 95.711 115.696 C 99.501 117.723, 101.221 116.728, 98.444 114.114 C 96.185 111.988, 88.876 109, 85.934 109 C 84.820 109, 82.784 107.875, 81.409 106.500 C 78.395 103.486, 77 103.322, 77 105.981 M 80.492 123.014 C 80.111 123.629, 80.632 124.764, 81.650 125.535 C 84.301 127.543, 85.054 127.320, 84.122 124.801 C 83.176 122.244, 81.483 121.410, 80.492 123.014 M 89.223 125.986 C 90.898 128.668, 99.552 133.203, 102.261 132.818 C 104.082 132.559, 103.411 131.883, 98.662 129.192 C 95.451 127.372, 91.743 125.472, 90.421 124.970 C 88.220 124.133, 88.120 124.219, 89.223 125.986 M 84 133 C 82.903 133.709, 83.658 133.973, 86.809 133.985 C 89.430 133.994, 90.876 133.608, 90.500 133 C 89.716 131.731, 85.963 131.731, 84 133 M 75 135.815 C 75 137.115, 81.801 140, 84.867 140 C 89.441 140, 99 137.801, 99 136.748 C 99 136.172, 97.672 136.058, 95.750 136.470 C 87.946 138.143, 81.109 138.190, 78.820 136.587 C 76.321 134.836, 75 134.569, 75 135.815" stroke="none" fill="currentColor" fill-rule="evenodd"/>
</svg>