<svg xmlns="http://www.w3.org/2000/svg" viewBox="0 0 100 100" width="100%" height="100%">
  <!-- Stylized brain contour with spiral center mark -->
  <g fill="none" stroke="#111111" stroke-width="2.5" stroke-linecap="round" stroke-linejoin="round">
    <!-- Outer brain folds -->
    <path d="M50 15 C35 15, 20 25, 20 42 C20 54, 26 62, 33 68 C35 73, 40 82, 45 84 C48 85, 52 85, 55 84 C60 82, 65 73, 67 68 C74 62, 80 54, 80 42 C80 25, 65 15, 50 15 Z" />
    
    <!-- Gyri sulci convolutions left hemisphere -->
    <path d="M30 32 C26 38, 28 46, 34 48 C40 50, 42 43, 38 38 C34 33, 40 28, 46 29" />
    <path d="M22 45 C24 53, 30 57, 36 55 C42 53, 42 60, 36 63" />
    
    <!-- Gyri sulci convolutions right hemisphere -->
    <path d="M70 32 C74 38, 72 46, 66 48 C60 50, 58 43, 62 38 C66 33, 60 28, 54 29" />
    <path d="M78 45 C76 53, 70 57, 64 55 C58 53, 58 60, 64 63" />
    
    <!-- Top central sulcus -->
    <path d="M50 16 C48 24, 52 28, 50 35" />
    
    <!-- Central Hypnotic Reality Spiral (representing mind, reality, hypnotherapy) -->
    <path d="M50 48 
             A 5 5 0 0 1 54 52 
             A 9 9 0 0 1 45 56 
             A 14 14 0 0 1 40 43 
             A 19 19 0 0 1 58 35 
             A 23 23 0 0 1 67 56 
             A 26 26 0 0 1 43 69" />
             
    <!-- Stem details -->
    <path d="M46 75 C45 80, 48 83, 50 83 C52 83, 55 80, 54 75" />
  </g>
</svg>